%TF.GenerationSoftware,KiCad,Pcbnew,(6.0.4)*%
%TF.CreationDate,2022-05-07T21:31:00+10:00*%
%TF.ProjectId,mr-20-breakout,6d722d32-302d-4627-9265-616b6f75742e,rev?*%
%TF.SameCoordinates,Original*%
%TF.FileFunction,Soldermask,Top*%
%TF.FilePolarity,Negative*%
%FSLAX46Y46*%
G04 Gerber Fmt 4.6, Leading zero omitted, Abs format (unit mm)*
G04 Created by KiCad (PCBNEW (6.0.4)) date 2022-05-07 21:31:00*
%MOMM*%
%LPD*%
G01*
G04 APERTURE LIST*
G04 Aperture macros list*
%AMRoundRect*
0 Rectangle with rounded corners*
0 $1 Rounding radius*
0 $2 $3 $4 $5 $6 $7 $8 $9 X,Y pos of 4 corners*
0 Add a 4 corners polygon primitive as box body*
4,1,4,$2,$3,$4,$5,$6,$7,$8,$9,$2,$3,0*
0 Add four circle primitives for the rounded corners*
1,1,$1+$1,$2,$3*
1,1,$1+$1,$4,$5*
1,1,$1+$1,$6,$7*
1,1,$1+$1,$8,$9*
0 Add four rect primitives between the rounded corners*
20,1,$1+$1,$2,$3,$4,$5,0*
20,1,$1+$1,$4,$5,$6,$7,0*
20,1,$1+$1,$6,$7,$8,$9,0*
20,1,$1+$1,$8,$9,$2,$3,0*%
G04 Aperture macros list end*
%ADD10C,3.300000*%
%ADD11C,2.900000*%
%ADD12RoundRect,0.050000X-0.762000X-0.762000X0.762000X-0.762000X0.762000X0.762000X-0.762000X0.762000X0*%
%ADD13C,1.624000*%
%ADD14RoundRect,0.050000X0.762000X0.762000X-0.762000X0.762000X-0.762000X-0.762000X0.762000X-0.762000X0*%
G04 APERTURE END LIST*
D10*
%TO.C,REF\u002A\u002A*%
X188000000Y-64410000D03*
%TD*%
D11*
%TO.C,CN1*%
X134100000Y-27960000D03*
X161900000Y-27960000D03*
D12*
X140200000Y-27460000D03*
X142800000Y-27460000D03*
X145400000Y-27460000D03*
X148000000Y-27460000D03*
X150600000Y-27460000D03*
X153200000Y-27460000D03*
X155800000Y-27460000D03*
X141500000Y-30000000D03*
X144100000Y-30000000D03*
X146700000Y-30000000D03*
X149300000Y-30000000D03*
X151900000Y-30000000D03*
X154500000Y-30000000D03*
X140200000Y-32540000D03*
X142800000Y-32540000D03*
X145400000Y-32540000D03*
X148000000Y-32540000D03*
X150600000Y-32540000D03*
X153200000Y-32540000D03*
X155800000Y-32540000D03*
%TD*%
D10*
%TO.C,REF\u002A\u002A*%
X108000000Y-64410000D03*
%TD*%
D13*
%TO.C,J2*%
X108500000Y-45000000D03*
X112000000Y-50000000D03*
X115500000Y-45000000D03*
X119000000Y-50000000D03*
X122500000Y-45000000D03*
X126000000Y-50000000D03*
X129500000Y-45000000D03*
X133000000Y-50000000D03*
X136500000Y-45000000D03*
D14*
X140000000Y-50000000D03*
%TD*%
%TO.C,J1*%
X186000000Y-50000000D03*
D13*
X182500000Y-45000000D03*
X179000000Y-50000000D03*
X175500000Y-45000000D03*
X172000000Y-50000000D03*
X168500000Y-45000000D03*
X165000000Y-50000000D03*
X161500000Y-45000000D03*
X158000000Y-50000000D03*
X154500000Y-45000000D03*
%TD*%
D10*
%TO.C,REF\u002A\u002A*%
X188000000Y-24410000D03*
%TD*%
%TO.C,REF\u002A\u002A*%
X108000000Y-24410000D03*
%TD*%
M02*
