%TF.GenerationSoftware,KiCad,Pcbnew,(6.0.4)*%
%TF.CreationDate,2022-05-07T21:31:00+10:00*%
%TF.ProjectId,mr-20-breakout,6d722d32-302d-4627-9265-616b6f75742e,rev?*%
%TF.SameCoordinates,Original*%
%TF.FileFunction,Legend,Top*%
%TF.FilePolarity,Positive*%
%FSLAX46Y46*%
G04 Gerber Fmt 4.6, Leading zero omitted, Abs format (unit mm)*
G04 Created by KiCad (PCBNEW (6.0.4)) date 2022-05-07 21:31:00*
%MOMM*%
%LPD*%
G01*
G04 APERTURE LIST*
%ADD10C,0.300000*%
%ADD11C,0.153000*%
%ADD12C,0.150000*%
%ADD13C,0.120000*%
G04 APERTURE END LIST*
D10*
X135071428Y-67588571D02*
X135071428Y-66088571D01*
X135571428Y-67160000D01*
X136071428Y-66088571D01*
X136071428Y-67588571D01*
X137642857Y-67588571D02*
X137142857Y-66874285D01*
X136785714Y-67588571D02*
X136785714Y-66088571D01*
X137357142Y-66088571D01*
X137500000Y-66160000D01*
X137571428Y-66231428D01*
X137642857Y-66374285D01*
X137642857Y-66588571D01*
X137571428Y-66731428D01*
X137500000Y-66802857D01*
X137357142Y-66874285D01*
X136785714Y-66874285D01*
X138285714Y-67017142D02*
X139428571Y-67017142D01*
X140071428Y-66231428D02*
X140142857Y-66160000D01*
X140285714Y-66088571D01*
X140642857Y-66088571D01*
X140785714Y-66160000D01*
X140857142Y-66231428D01*
X140928571Y-66374285D01*
X140928571Y-66517142D01*
X140857142Y-66731428D01*
X140000000Y-67588571D01*
X140928571Y-67588571D01*
X141857142Y-66088571D02*
X142000000Y-66088571D01*
X142142857Y-66160000D01*
X142214285Y-66231428D01*
X142285714Y-66374285D01*
X142357142Y-66660000D01*
X142357142Y-67017142D01*
X142285714Y-67302857D01*
X142214285Y-67445714D01*
X142142857Y-67517142D01*
X142000000Y-67588571D01*
X141857142Y-67588571D01*
X141714285Y-67517142D01*
X141642857Y-67445714D01*
X141571428Y-67302857D01*
X141500000Y-67017142D01*
X141500000Y-66660000D01*
X141571428Y-66374285D01*
X141642857Y-66231428D01*
X141714285Y-66160000D01*
X141857142Y-66088571D01*
X144642857Y-66802857D02*
X144857142Y-66874285D01*
X144928571Y-66945714D01*
X145000000Y-67088571D01*
X145000000Y-67302857D01*
X144928571Y-67445714D01*
X144857142Y-67517142D01*
X144714285Y-67588571D01*
X144142857Y-67588571D01*
X144142857Y-66088571D01*
X144642857Y-66088571D01*
X144785714Y-66160000D01*
X144857142Y-66231428D01*
X144928571Y-66374285D01*
X144928571Y-66517142D01*
X144857142Y-66660000D01*
X144785714Y-66731428D01*
X144642857Y-66802857D01*
X144142857Y-66802857D01*
X145642857Y-67588571D02*
X145642857Y-66588571D01*
X145642857Y-66874285D02*
X145714285Y-66731428D01*
X145785714Y-66660000D01*
X145928571Y-66588571D01*
X146071428Y-66588571D01*
X147142857Y-67517142D02*
X147000000Y-67588571D01*
X146714285Y-67588571D01*
X146571428Y-67517142D01*
X146500000Y-67374285D01*
X146500000Y-66802857D01*
X146571428Y-66660000D01*
X146714285Y-66588571D01*
X147000000Y-66588571D01*
X147142857Y-66660000D01*
X147214285Y-66802857D01*
X147214285Y-66945714D01*
X146500000Y-67088571D01*
X148500000Y-67588571D02*
X148500000Y-66802857D01*
X148428571Y-66660000D01*
X148285714Y-66588571D01*
X148000000Y-66588571D01*
X147857142Y-66660000D01*
X148500000Y-67517142D02*
X148357142Y-67588571D01*
X148000000Y-67588571D01*
X147857142Y-67517142D01*
X147785714Y-67374285D01*
X147785714Y-67231428D01*
X147857142Y-67088571D01*
X148000000Y-67017142D01*
X148357142Y-67017142D01*
X148500000Y-66945714D01*
X149214285Y-67588571D02*
X149214285Y-66088571D01*
X149357142Y-67017142D02*
X149785714Y-67588571D01*
X149785714Y-66588571D02*
X149214285Y-67160000D01*
X150642857Y-67588571D02*
X150500000Y-67517142D01*
X150428571Y-67445714D01*
X150357142Y-67302857D01*
X150357142Y-66874285D01*
X150428571Y-66731428D01*
X150500000Y-66660000D01*
X150642857Y-66588571D01*
X150857142Y-66588571D01*
X151000000Y-66660000D01*
X151071428Y-66731428D01*
X151142857Y-66874285D01*
X151142857Y-67302857D01*
X151071428Y-67445714D01*
X151000000Y-67517142D01*
X150857142Y-67588571D01*
X150642857Y-67588571D01*
X152428571Y-66588571D02*
X152428571Y-67588571D01*
X151785714Y-66588571D02*
X151785714Y-67374285D01*
X151857142Y-67517142D01*
X152000000Y-67588571D01*
X152214285Y-67588571D01*
X152357142Y-67517142D01*
X152428571Y-67445714D01*
X152928571Y-66588571D02*
X153500000Y-66588571D01*
X153142857Y-66088571D02*
X153142857Y-67374285D01*
X153214285Y-67517142D01*
X153357142Y-67588571D01*
X153500000Y-67588571D01*
X155642857Y-66802857D02*
X155857142Y-66874285D01*
X155928571Y-66945714D01*
X156000000Y-67088571D01*
X156000000Y-67302857D01*
X155928571Y-67445714D01*
X155857142Y-67517142D01*
X155714285Y-67588571D01*
X155142857Y-67588571D01*
X155142857Y-66088571D01*
X155642857Y-66088571D01*
X155785714Y-66160000D01*
X155857142Y-66231428D01*
X155928571Y-66374285D01*
X155928571Y-66517142D01*
X155857142Y-66660000D01*
X155785714Y-66731428D01*
X155642857Y-66802857D01*
X155142857Y-66802857D01*
X156857142Y-67588571D02*
X156714285Y-67517142D01*
X156642857Y-67445714D01*
X156571428Y-67302857D01*
X156571428Y-66874285D01*
X156642857Y-66731428D01*
X156714285Y-66660000D01*
X156857142Y-66588571D01*
X157071428Y-66588571D01*
X157214285Y-66660000D01*
X157285714Y-66731428D01*
X157357142Y-66874285D01*
X157357142Y-67302857D01*
X157285714Y-67445714D01*
X157214285Y-67517142D01*
X157071428Y-67588571D01*
X156857142Y-67588571D01*
X158642857Y-67588571D02*
X158642857Y-66802857D01*
X158571428Y-66660000D01*
X158428571Y-66588571D01*
X158142857Y-66588571D01*
X158000000Y-66660000D01*
X158642857Y-67517142D02*
X158500000Y-67588571D01*
X158142857Y-67588571D01*
X158000000Y-67517142D01*
X157928571Y-67374285D01*
X157928571Y-67231428D01*
X158000000Y-67088571D01*
X158142857Y-67017142D01*
X158500000Y-67017142D01*
X158642857Y-66945714D01*
X159357142Y-67588571D02*
X159357142Y-66588571D01*
X159357142Y-66874285D02*
X159428571Y-66731428D01*
X159500000Y-66660000D01*
X159642857Y-66588571D01*
X159785714Y-66588571D01*
X160928571Y-67588571D02*
X160928571Y-66088571D01*
X160928571Y-67517142D02*
X160785714Y-67588571D01*
X160500000Y-67588571D01*
X160357142Y-67517142D01*
X160285714Y-67445714D01*
X160214285Y-67302857D01*
X160214285Y-66874285D01*
X160285714Y-66731428D01*
X160357142Y-66660000D01*
X160500000Y-66588571D01*
X160785714Y-66588571D01*
X160928571Y-66660000D01*
D11*
%TO.C,CN1*%
X147309523Y-37357142D02*
X147261904Y-37404761D01*
X147119047Y-37452380D01*
X147023809Y-37452380D01*
X146880952Y-37404761D01*
X146785714Y-37309523D01*
X146738095Y-37214285D01*
X146690476Y-37023809D01*
X146690476Y-36880952D01*
X146738095Y-36690476D01*
X146785714Y-36595238D01*
X146880952Y-36500000D01*
X147023809Y-36452380D01*
X147119047Y-36452380D01*
X147261904Y-36500000D01*
X147309523Y-36547619D01*
X147738095Y-37452380D02*
X147738095Y-36452380D01*
X148309523Y-37452380D01*
X148309523Y-36452380D01*
X149309523Y-37452380D02*
X148738095Y-37452380D01*
X149023809Y-37452380D02*
X149023809Y-36452380D01*
X148928571Y-36595238D01*
X148833333Y-36690476D01*
X148738095Y-36738095D01*
X127510073Y-27952380D02*
X126938645Y-27952380D01*
X127224359Y-27952380D02*
X127224359Y-26952380D01*
X127129121Y-27095238D01*
X127033883Y-27190476D01*
X126938645Y-27238095D01*
X126557692Y-32952380D02*
X125986264Y-32952380D01*
X126271978Y-32952380D02*
X126271978Y-31952380D01*
X126176740Y-32095238D01*
X126081502Y-32190476D01*
X125986264Y-32238095D01*
X127414835Y-32285714D02*
X127414835Y-32952380D01*
X127176740Y-31904761D02*
X126938645Y-32619047D01*
X127557692Y-32619047D01*
X127129121Y-29880952D02*
X127033883Y-29833333D01*
X126986264Y-29785714D01*
X126938645Y-29690476D01*
X126938645Y-29642857D01*
X126986264Y-29547619D01*
X127033883Y-29500000D01*
X127129121Y-29452380D01*
X127319597Y-29452380D01*
X127414835Y-29500000D01*
X127462454Y-29547619D01*
X127510073Y-29642857D01*
X127510073Y-29690476D01*
X127462454Y-29785714D01*
X127414835Y-29833333D01*
X127319597Y-29880952D01*
X127129121Y-29880952D01*
X127033883Y-29928571D01*
X126986264Y-29976190D01*
X126938645Y-30071428D01*
X126938645Y-30261904D01*
X126986264Y-30357142D01*
X127033883Y-30404761D01*
X127129121Y-30452380D01*
X127319597Y-30452380D01*
X127414835Y-30404761D01*
X127462454Y-30357142D01*
X127510073Y-30261904D01*
X127510073Y-30071428D01*
X127462454Y-29976190D01*
X127414835Y-29928571D01*
X127319597Y-29880952D01*
D12*
%TO.C,J2*%
X125666666Y-52952380D02*
X125666666Y-53666666D01*
X125619047Y-53809523D01*
X125523809Y-53904761D01*
X125380952Y-53952380D01*
X125285714Y-53952380D01*
X126095238Y-53047619D02*
X126142857Y-53000000D01*
X126238095Y-52952380D01*
X126476190Y-52952380D01*
X126571428Y-53000000D01*
X126619047Y-53047619D01*
X126666666Y-53142857D01*
X126666666Y-53238095D01*
X126619047Y-53380952D01*
X126047619Y-53952380D01*
X126666666Y-53952380D01*
D11*
X145809523Y-50452380D02*
X145238095Y-50452380D01*
X145523809Y-50452380D02*
X145523809Y-49452380D01*
X145428571Y-49595238D01*
X145333333Y-49690476D01*
X145238095Y-49738095D01*
X146761904Y-50452380D02*
X146190476Y-50452380D01*
X146476190Y-50452380D02*
X146476190Y-49452380D01*
X146380952Y-49595238D01*
X146285714Y-49690476D01*
X146190476Y-49738095D01*
D12*
%TO.C,J1*%
X171666666Y-52952380D02*
X171666666Y-53666666D01*
X171619047Y-53809523D01*
X171523809Y-53904761D01*
X171380952Y-53952380D01*
X171285714Y-53952380D01*
X172666666Y-53952380D02*
X172095238Y-53952380D01*
X172380952Y-53952380D02*
X172380952Y-52952380D01*
X172285714Y-53095238D01*
X172190476Y-53190476D01*
X172095238Y-53238095D01*
D11*
X191761354Y-50452380D02*
X191189926Y-50452380D01*
X191475640Y-50452380D02*
X191475640Y-49452380D01*
X191380402Y-49595238D01*
X191285164Y-49690476D01*
X191189926Y-49738095D01*
%TO.C,CN1*%
X129500000Y-35160000D02*
X166500000Y-35160000D01*
X129500000Y-35160000D02*
X129500000Y-21960000D01*
X166500000Y-35160000D02*
X166500000Y-21960000D01*
X129500000Y-21960000D02*
X166500000Y-21960000D01*
G36*
X128800000Y-27500000D02*
G01*
X128300000Y-28000000D01*
X128300000Y-27000000D01*
X128800000Y-27500000D01*
G37*
D13*
X128800000Y-27500000D02*
X128300000Y-28000000D01*
X128300000Y-27000000D01*
X128800000Y-27500000D01*
%TO.C,J2*%
G36*
X144500000Y-50500000D02*
G01*
X144000000Y-50000000D01*
X144500000Y-49500000D01*
X144500000Y-50500000D01*
G37*
D11*
X144500000Y-50500000D02*
X144000000Y-50000000D01*
X144500000Y-49500000D01*
X144500000Y-50500000D01*
X106750000Y-40300000D02*
X106750000Y-52300000D01*
X143250000Y-40300000D02*
X106750000Y-40300000D01*
X143250000Y-52300000D02*
X143250000Y-40300000D01*
X106750000Y-52300000D02*
X143250000Y-52300000D01*
%TO.C,J1*%
X189250000Y-40300000D02*
X152750000Y-40300000D01*
X152750000Y-40300000D02*
X152750000Y-52300000D01*
X152750000Y-52300000D02*
X189250000Y-52300000D01*
X189250000Y-52300000D02*
X189250000Y-40300000D01*
G36*
X190500000Y-50500000D02*
G01*
X190000000Y-50000000D01*
X190500000Y-49500000D01*
X190500000Y-50500000D01*
G37*
X190500000Y-50500000D02*
X190000000Y-50000000D01*
X190500000Y-49500000D01*
X190500000Y-50500000D01*
%TD*%
M02*
