%TF.GenerationSoftware,KiCad,Pcbnew,(6.0.4)*%
%TF.CreationDate,2022-05-02T02:18:10+10:00*%
%TF.ProjectId,mr-50-breakout,6d722d35-302d-4627-9265-616b6f75742e,rev?*%
%TF.SameCoordinates,Original*%
%TF.FileFunction,Soldermask,Bot*%
%TF.FilePolarity,Negative*%
%FSLAX46Y46*%
G04 Gerber Fmt 4.6, Leading zero omitted, Abs format (unit mm)*
G04 Created by KiCad (PCBNEW (6.0.4)) date 2022-05-02 02:18:10*
%MOMM*%
%LPD*%
G01*
G04 APERTURE LIST*
G04 Aperture macros list*
%AMRoundRect*
0 Rectangle with rounded corners*
0 $1 Rounding radius*
0 $2 $3 $4 $5 $6 $7 $8 $9 X,Y pos of 4 corners*
0 Add a 4 corners polygon primitive as box body*
4,1,4,$2,$3,$4,$5,$6,$7,$8,$9,$2,$3,0*
0 Add four circle primitives for the rounded corners*
1,1,$1+$1,$2,$3*
1,1,$1+$1,$4,$5*
1,1,$1+$1,$6,$7*
1,1,$1+$1,$8,$9*
0 Add four rect primitives between the rounded corners*
20,1,$1+$1,$2,$3,$4,$5,0*
20,1,$1+$1,$4,$5,$6,$7,0*
20,1,$1+$1,$6,$7,$8,$9,0*
20,1,$1+$1,$8,$9,$2,$3,0*%
G04 Aperture macros list end*
%ADD10C,3.300000*%
%ADD11RoundRect,0.050000X0.762000X0.762000X-0.762000X0.762000X-0.762000X-0.762000X0.762000X-0.762000X0*%
%ADD12C,1.624000*%
%ADD13C,2.900000*%
%ADD14RoundRect,0.050000X-0.762000X-0.762000X0.762000X-0.762000X0.762000X0.762000X-0.762000X0.762000X0*%
G04 APERTURE END LIST*
D10*
%TO.C,REF\u002A\u002A*%
X188000000Y-89410000D03*
%TD*%
%TO.C,REF\u002A\u002A*%
X108000000Y-89410000D03*
%TD*%
%TO.C,REF\u002A\u002A*%
X188000000Y-24410000D03*
%TD*%
%TO.C,REF\u002A\u002A*%
X108000000Y-24410000D03*
%TD*%
D11*
%TO.C,J5*%
X164550000Y-86000000D03*
D12*
X161050000Y-81000000D03*
X157550000Y-86000000D03*
X154050000Y-81000000D03*
X150550000Y-86000000D03*
X147050000Y-81000000D03*
X143550000Y-86000000D03*
X140050000Y-81000000D03*
X136550000Y-86000000D03*
X133050000Y-81000000D03*
%TD*%
D11*
%TO.C,J4*%
X143300000Y-68000000D03*
D12*
X139800000Y-63000000D03*
X136300000Y-68000000D03*
X132800000Y-63000000D03*
X129300000Y-68000000D03*
X125800000Y-63000000D03*
X122300000Y-68000000D03*
X118800000Y-63000000D03*
X115300000Y-68000000D03*
X111800000Y-63000000D03*
%TD*%
D11*
%TO.C,J3*%
X185800000Y-68000000D03*
D12*
X182300000Y-63000000D03*
X178800000Y-68000000D03*
X175300000Y-63000000D03*
X171800000Y-68000000D03*
X168300000Y-63000000D03*
X164800000Y-68000000D03*
X161300000Y-63000000D03*
X157800000Y-68000000D03*
X154300000Y-63000000D03*
%TD*%
%TO.C,J2*%
X111800000Y-45000000D03*
X115300000Y-50000000D03*
X118800000Y-45000000D03*
X122300000Y-50000000D03*
X125800000Y-45000000D03*
X129300000Y-50000000D03*
X132800000Y-45000000D03*
X136300000Y-50000000D03*
X139800000Y-45000000D03*
D11*
X143300000Y-50000000D03*
%TD*%
%TO.C,J1*%
X185800000Y-50000000D03*
D12*
X182300000Y-45000000D03*
X178800000Y-50000000D03*
X175300000Y-45000000D03*
X171800000Y-50000000D03*
X168300000Y-45000000D03*
X164800000Y-50000000D03*
X161300000Y-45000000D03*
X157800000Y-50000000D03*
X154300000Y-45000000D03*
%TD*%
D13*
%TO.C,CN1*%
X121800000Y-27960000D03*
X178200000Y-27960000D03*
D14*
X127900000Y-27460000D03*
X130500000Y-27460000D03*
X133100000Y-27460000D03*
X135700000Y-27460000D03*
X138300000Y-27460000D03*
X140900000Y-27460000D03*
X143500000Y-27460000D03*
X146100000Y-27460000D03*
X148700000Y-27460000D03*
X151300000Y-27460000D03*
X153900000Y-27460000D03*
X156500000Y-27460000D03*
X159100000Y-27460000D03*
X161700000Y-27460000D03*
X164300000Y-27460000D03*
X166900000Y-27460000D03*
X169500000Y-27460000D03*
X172100000Y-27460000D03*
X131800000Y-30000000D03*
X134400000Y-30000000D03*
X137000000Y-30000000D03*
X139600000Y-30000000D03*
X142200000Y-30000000D03*
X144800000Y-30000000D03*
X147400000Y-30000000D03*
X150000000Y-30000000D03*
X152600000Y-30000000D03*
X155200000Y-30000000D03*
X157800000Y-30000000D03*
X160400000Y-30000000D03*
X163000000Y-30000000D03*
X165600000Y-30000000D03*
X127900000Y-32540000D03*
X130500000Y-32540000D03*
X133100000Y-32540000D03*
X135700000Y-32540000D03*
X138300000Y-32540000D03*
X140900000Y-32540000D03*
X143500000Y-32540000D03*
X146100000Y-32540000D03*
X148700000Y-32540000D03*
X151300000Y-32540000D03*
X153900000Y-32540000D03*
X156500000Y-32540000D03*
X159100000Y-32540000D03*
X161700000Y-32540000D03*
X164300000Y-32540000D03*
X166900000Y-32540000D03*
X169500000Y-32540000D03*
X172100000Y-32540000D03*
%TD*%
M02*
