%TF.GenerationSoftware,KiCad,Pcbnew,(6.0.4)*%
%TF.CreationDate,2022-05-02T02:18:10+10:00*%
%TF.ProjectId,mr-50-breakout,6d722d35-302d-4627-9265-616b6f75742e,rev?*%
%TF.SameCoordinates,Original*%
%TF.FileFunction,Copper,L1,Top*%
%TF.FilePolarity,Positive*%
%FSLAX46Y46*%
G04 Gerber Fmt 4.6, Leading zero omitted, Abs format (unit mm)*
G04 Created by KiCad (PCBNEW (6.0.4)) date 2022-05-02 02:18:10*
%MOMM*%
%LPD*%
G01*
G04 APERTURE LIST*
%TA.AperFunction,ComponentPad*%
%ADD10R,1.524000X1.524000*%
%TD*%
%TA.AperFunction,ComponentPad*%
%ADD11C,1.524000*%
%TD*%
%TA.AperFunction,Conductor*%
%ADD12C,0.300000*%
%TD*%
G04 APERTURE END LIST*
D10*
%TO.P,J5,1,Pin_1*%
%TO.N,Net-(CN1-Pad41)*%
X164550000Y-86000000D03*
D11*
%TO.P,J5,2,Pin_2*%
%TO.N,Net-(CN1-Pad42)*%
X161050000Y-81000000D03*
%TO.P,J5,3,Pin_3*%
%TO.N,Net-(CN1-Pad43)*%
X157550000Y-86000000D03*
%TO.P,J5,4,Pin_4*%
%TO.N,Net-(CN1-Pad44)*%
X154050000Y-81000000D03*
%TO.P,J5,5,Pin_5*%
%TO.N,Net-(CN1-Pad45)*%
X150550000Y-86000000D03*
%TO.P,J5,6,Pin_6*%
%TO.N,Net-(CN1-Pad46)*%
X147050000Y-81000000D03*
%TO.P,J5,7,Pin_7*%
%TO.N,Net-(CN1-Pad47)*%
X143550000Y-86000000D03*
%TO.P,J5,8,Pin_8*%
%TO.N,Net-(CN1-Pad48)*%
X140050000Y-81000000D03*
%TO.P,J5,9,Pin_9*%
%TO.N,Net-(CN1-Pad49)*%
X136550000Y-86000000D03*
%TO.P,J5,10,Pin_10*%
%TO.N,Net-(CN1-Pad50)*%
X133050000Y-81000000D03*
%TD*%
D10*
%TO.P,J4,1,Pin_1*%
%TO.N,Net-(CN1-Pad31)*%
X143300000Y-68000000D03*
D11*
%TO.P,J4,2,Pin_2*%
%TO.N,Net-(CN1-Pad32)*%
X139800000Y-63000000D03*
%TO.P,J4,3,Pin_3*%
%TO.N,Net-(CN1-Pad33)*%
X136300000Y-68000000D03*
%TO.P,J4,4,Pin_4*%
%TO.N,Net-(CN1-Pad34)*%
X132800000Y-63000000D03*
%TO.P,J4,5,Pin_5*%
%TO.N,Net-(CN1-Pad35)*%
X129300000Y-68000000D03*
%TO.P,J4,6,Pin_6*%
%TO.N,Net-(CN1-Pad36)*%
X125800000Y-63000000D03*
%TO.P,J4,7,Pin_7*%
%TO.N,Net-(CN1-Pad37)*%
X122300000Y-68000000D03*
%TO.P,J4,8,Pin_8*%
%TO.N,Net-(CN1-Pad38)*%
X118800000Y-63000000D03*
%TO.P,J4,9,Pin_9*%
%TO.N,Net-(CN1-Pad39)*%
X115300000Y-68000000D03*
%TO.P,J4,10,Pin_10*%
%TO.N,Net-(CN1-Pad40)*%
X111800000Y-63000000D03*
%TD*%
D10*
%TO.P,J3,1,Pin_1*%
%TO.N,Net-(CN1-Pad21)*%
X185800000Y-68000000D03*
D11*
%TO.P,J3,2,Pin_2*%
%TO.N,Net-(CN1-Pad22)*%
X182300000Y-63000000D03*
%TO.P,J3,3,Pin_3*%
%TO.N,Net-(CN1-Pad23)*%
X178800000Y-68000000D03*
%TO.P,J3,4,Pin_4*%
%TO.N,Net-(CN1-Pad24)*%
X175300000Y-63000000D03*
%TO.P,J3,5,Pin_5*%
%TO.N,Net-(CN1-Pad25)*%
X171800000Y-68000000D03*
%TO.P,J3,6,Pin_6*%
%TO.N,Net-(CN1-Pad26)*%
X168300000Y-63000000D03*
%TO.P,J3,7,Pin_7*%
%TO.N,Net-(CN1-Pad27)*%
X164800000Y-68000000D03*
%TO.P,J3,8,Pin_8*%
%TO.N,Net-(CN1-Pad28)*%
X161300000Y-63000000D03*
%TO.P,J3,9,Pin_9*%
%TO.N,Net-(CN1-Pad29)*%
X157800000Y-68000000D03*
%TO.P,J3,10,Pin_10*%
%TO.N,Net-(CN1-Pad30)*%
X154300000Y-63000000D03*
%TD*%
%TO.P,J2,10,Pin_10*%
%TO.N,Net-(CN1-Pad20)*%
X111800000Y-45000000D03*
%TO.P,J2,9,Pin_9*%
%TO.N,Net-(CN1-Pad19)*%
X115300000Y-50000000D03*
%TO.P,J2,8,Pin_8*%
%TO.N,Net-(CN1-Pad18)*%
X118800000Y-45000000D03*
%TO.P,J2,7,Pin_7*%
%TO.N,Net-(CN1-Pad17)*%
X122300000Y-50000000D03*
%TO.P,J2,6,Pin_6*%
%TO.N,Net-(CN1-Pad16)*%
X125800000Y-45000000D03*
%TO.P,J2,5,Pin_5*%
%TO.N,Net-(CN1-Pad15)*%
X129300000Y-50000000D03*
%TO.P,J2,4,Pin_4*%
%TO.N,Net-(CN1-Pad14)*%
X132800000Y-45000000D03*
%TO.P,J2,3,Pin_3*%
%TO.N,Net-(CN1-Pad13)*%
X136300000Y-50000000D03*
%TO.P,J2,2,Pin_2*%
%TO.N,Net-(CN1-Pad12)*%
X139800000Y-45000000D03*
D10*
%TO.P,J2,1,Pin_1*%
%TO.N,Net-(CN1-Pad11)*%
X143300000Y-50000000D03*
%TD*%
%TO.P,J1,1,Pin_1*%
%TO.N,Net-(CN1-Pad1)*%
X185800000Y-50000000D03*
D11*
%TO.P,J1,2,Pin_2*%
%TO.N,Net-(CN1-Pad2)*%
X182300000Y-45000000D03*
%TO.P,J1,3,Pin_3*%
%TO.N,Net-(CN1-Pad3)*%
X178800000Y-50000000D03*
%TO.P,J1,4,Pin_4*%
%TO.N,Net-(CN1-Pad4)*%
X175300000Y-45000000D03*
%TO.P,J1,5,Pin_5*%
%TO.N,Net-(CN1-Pad5)*%
X171800000Y-50000000D03*
%TO.P,J1,6,Pin_6*%
%TO.N,Net-(CN1-Pad6)*%
X168300000Y-45000000D03*
%TO.P,J1,7,Pin_7*%
%TO.N,Net-(CN1-Pad7)*%
X164800000Y-50000000D03*
%TO.P,J1,8,Pin_8*%
%TO.N,Net-(CN1-Pad8)*%
X161300000Y-45000000D03*
%TO.P,J1,9,Pin_9*%
%TO.N,Net-(CN1-Pad9)*%
X157800000Y-50000000D03*
%TO.P,J1,10,Pin_10*%
%TO.N,Net-(CN1-Pad10)*%
X154300000Y-45000000D03*
%TD*%
D10*
%TO.P,CN1,1*%
%TO.N,Net-(CN1-Pad1)*%
X127900000Y-27460000D03*
%TO.P,CN1,2*%
%TO.N,Net-(CN1-Pad2)*%
X130500000Y-27460000D03*
%TO.P,CN1,3*%
%TO.N,Net-(CN1-Pad3)*%
X133100000Y-27460000D03*
%TO.P,CN1,4*%
%TO.N,Net-(CN1-Pad4)*%
X135700000Y-27460000D03*
%TO.P,CN1,5*%
%TO.N,Net-(CN1-Pad5)*%
X138300000Y-27460000D03*
%TO.P,CN1,6*%
%TO.N,Net-(CN1-Pad6)*%
X140900000Y-27460000D03*
%TO.P,CN1,7*%
%TO.N,Net-(CN1-Pad7)*%
X143500000Y-27460000D03*
%TO.P,CN1,8*%
%TO.N,Net-(CN1-Pad8)*%
X146100000Y-27460000D03*
%TO.P,CN1,9*%
%TO.N,Net-(CN1-Pad9)*%
X148700000Y-27460000D03*
%TO.P,CN1,10*%
%TO.N,Net-(CN1-Pad10)*%
X151300000Y-27460000D03*
%TO.P,CN1,11*%
%TO.N,Net-(CN1-Pad11)*%
X153900000Y-27460000D03*
%TO.P,CN1,12*%
%TO.N,Net-(CN1-Pad12)*%
X156500000Y-27460000D03*
%TO.P,CN1,13*%
%TO.N,Net-(CN1-Pad13)*%
X159100000Y-27460000D03*
%TO.P,CN1,14*%
%TO.N,Net-(CN1-Pad14)*%
X161700000Y-27460000D03*
%TO.P,CN1,15*%
%TO.N,Net-(CN1-Pad15)*%
X164300000Y-27460000D03*
%TO.P,CN1,16*%
%TO.N,Net-(CN1-Pad16)*%
X166900000Y-27460000D03*
%TO.P,CN1,17*%
%TO.N,Net-(CN1-Pad17)*%
X169500000Y-27460000D03*
%TO.P,CN1,18*%
%TO.N,Net-(CN1-Pad18)*%
X172100000Y-27460000D03*
%TO.P,CN1,19*%
%TO.N,Net-(CN1-Pad19)*%
X131800000Y-30000000D03*
%TO.P,CN1,20*%
%TO.N,Net-(CN1-Pad20)*%
X134400000Y-30000000D03*
%TO.P,CN1,21*%
%TO.N,Net-(CN1-Pad21)*%
X137000000Y-30000000D03*
%TO.P,CN1,22*%
%TO.N,Net-(CN1-Pad22)*%
X139600000Y-30000000D03*
%TO.P,CN1,23*%
%TO.N,Net-(CN1-Pad23)*%
X142200000Y-30000000D03*
%TO.P,CN1,24*%
%TO.N,Net-(CN1-Pad24)*%
X144800000Y-30000000D03*
%TO.P,CN1,25*%
%TO.N,Net-(CN1-Pad25)*%
X147400000Y-30000000D03*
%TO.P,CN1,26*%
%TO.N,Net-(CN1-Pad26)*%
X150000000Y-30000000D03*
%TO.P,CN1,27*%
%TO.N,Net-(CN1-Pad27)*%
X152600000Y-30000000D03*
%TO.P,CN1,28*%
%TO.N,Net-(CN1-Pad28)*%
X155200000Y-30000000D03*
%TO.P,CN1,29*%
%TO.N,Net-(CN1-Pad29)*%
X157800000Y-30000000D03*
%TO.P,CN1,30*%
%TO.N,Net-(CN1-Pad30)*%
X160400000Y-30000000D03*
%TO.P,CN1,31*%
%TO.N,Net-(CN1-Pad31)*%
X163000000Y-30000000D03*
%TO.P,CN1,32*%
%TO.N,Net-(CN1-Pad32)*%
X165600000Y-30000000D03*
%TO.P,CN1,33*%
%TO.N,Net-(CN1-Pad33)*%
X127900000Y-32540000D03*
%TO.P,CN1,34*%
%TO.N,Net-(CN1-Pad34)*%
X130500000Y-32540000D03*
%TO.P,CN1,35*%
%TO.N,Net-(CN1-Pad35)*%
X133100000Y-32540000D03*
%TO.P,CN1,36*%
%TO.N,Net-(CN1-Pad36)*%
X135700000Y-32540000D03*
%TO.P,CN1,37*%
%TO.N,Net-(CN1-Pad37)*%
X138300000Y-32540000D03*
%TO.P,CN1,38*%
%TO.N,Net-(CN1-Pad38)*%
X140900000Y-32540000D03*
%TO.P,CN1,39*%
%TO.N,Net-(CN1-Pad39)*%
X143500000Y-32540000D03*
%TO.P,CN1,40*%
%TO.N,Net-(CN1-Pad40)*%
X146100000Y-32540000D03*
%TO.P,CN1,41*%
%TO.N,Net-(CN1-Pad41)*%
X148700000Y-32540000D03*
%TO.P,CN1,42*%
%TO.N,Net-(CN1-Pad42)*%
X151300000Y-32540000D03*
%TO.P,CN1,43*%
%TO.N,Net-(CN1-Pad43)*%
X153900000Y-32540000D03*
%TO.P,CN1,44*%
%TO.N,Net-(CN1-Pad44)*%
X156500000Y-32540000D03*
%TO.P,CN1,45*%
%TO.N,Net-(CN1-Pad45)*%
X159100000Y-32540000D03*
%TO.P,CN1,46*%
%TO.N,Net-(CN1-Pad46)*%
X161700000Y-32540000D03*
%TO.P,CN1,47*%
%TO.N,Net-(CN1-Pad47)*%
X164300000Y-32540000D03*
%TO.P,CN1,48*%
%TO.N,Net-(CN1-Pad48)*%
X166900000Y-32540000D03*
%TO.P,CN1,49*%
%TO.N,Net-(CN1-Pad49)*%
X169500000Y-32540000D03*
%TO.P,CN1,50*%
%TO.N,Net-(CN1-Pad50)*%
X172100000Y-32540000D03*
%TD*%
D12*
%TO.N,Net-(CN1-Pad3)*%
X178800000Y-44000000D02*
X178800000Y-50000000D01*
X182600000Y-40200000D02*
X178800000Y-44000000D01*
X178520247Y-21200963D02*
X182600000Y-25280716D01*
X134199037Y-21200963D02*
X178520247Y-21200963D01*
X182600000Y-25280716D02*
X182600000Y-40200000D01*
X133100000Y-22300000D02*
X134199037Y-21200963D01*
X133100000Y-27460000D02*
X133100000Y-22300000D01*
%TO.N,Net-(CN1-Pad6)*%
X169800000Y-45000000D02*
X168300000Y-45000000D01*
X180800000Y-25600000D02*
X180800000Y-34000000D01*
X177899520Y-22699520D02*
X180800000Y-25600000D01*
X142050480Y-22699520D02*
X177899520Y-22699520D01*
X140900000Y-23850000D02*
X142050480Y-22699520D01*
X180800000Y-34000000D02*
X169800000Y-45000000D01*
X140900000Y-27460000D02*
X140900000Y-23850000D01*
%TO.N,Net-(CN1-Pad9)*%
X157800000Y-45000000D02*
X157800000Y-50000000D01*
X164200000Y-38600000D02*
X157800000Y-45000000D01*
X170653213Y-38600000D02*
X164200000Y-38600000D01*
X174400000Y-34853213D02*
X170653213Y-38600000D01*
X174400000Y-26093572D02*
X174400000Y-34853213D01*
X172506429Y-24200001D02*
X174400000Y-26093572D01*
X148700000Y-25250000D02*
X149749999Y-24200001D01*
X149749999Y-24200001D02*
X172506429Y-24200001D01*
X148700000Y-27460000D02*
X148700000Y-25250000D01*
%TO.N,Net-(CN1-Pad8)*%
X161300000Y-42700000D02*
X161300000Y-45000000D01*
X175000000Y-25987144D02*
X175000000Y-35400000D01*
X171000000Y-39400000D02*
X164600000Y-39400000D01*
X172713338Y-23700482D02*
X175000000Y-25987144D01*
X147099518Y-23700482D02*
X172713338Y-23700482D01*
X164600000Y-39400000D02*
X161300000Y-42700000D01*
X146100000Y-24700000D02*
X147099518Y-23700482D01*
X146100000Y-27460000D02*
X146100000Y-24700000D01*
X175000000Y-35400000D02*
X171000000Y-39400000D01*
%TO.N,Net-(CN1-Pad7)*%
X164800000Y-42950000D02*
X164800000Y-50000000D01*
X167750000Y-40000000D02*
X164800000Y-42950000D01*
X175600000Y-25880717D02*
X175600000Y-36000000D01*
X175600000Y-36000000D02*
X171600000Y-40000000D01*
X144399999Y-23200001D02*
X172919284Y-23200001D01*
X172919284Y-23200001D02*
X175600000Y-25880717D01*
X171600000Y-40000000D02*
X167750000Y-40000000D01*
X143500000Y-24100000D02*
X144399999Y-23200001D01*
X143500000Y-27460000D02*
X143500000Y-24100000D01*
%TO.N,Net-(CN1-Pad1)*%
X179000000Y-20200000D02*
X183800000Y-25000000D01*
X183800000Y-25000000D02*
X183800000Y-48000000D01*
X183800000Y-48000000D02*
X185800000Y-50000000D01*
X129600000Y-20200000D02*
X179000000Y-20200000D01*
X127900000Y-21900000D02*
X129600000Y-20200000D01*
X127900000Y-27460000D02*
X127900000Y-21900000D01*
%TO.N,Net-(CN1-Pad2)*%
X183099520Y-25073808D02*
X183099520Y-44200480D01*
X183099520Y-44200480D02*
X182300000Y-45000000D01*
X130500000Y-21949520D02*
X131750000Y-20699520D01*
X131750000Y-20699520D02*
X178725232Y-20699520D01*
X178725232Y-20699520D02*
X183099520Y-25073808D01*
X130500000Y-27460000D02*
X130500000Y-21949520D01*
%TO.N,Net-(CN1-Pad4)*%
X182000000Y-38300000D02*
X175300000Y-45000000D01*
X182000000Y-25387144D02*
X182000000Y-38300000D01*
X136699518Y-21700482D02*
X178313338Y-21700482D01*
X135700000Y-22700000D02*
X136699518Y-21700482D01*
X135700000Y-27460000D02*
X135700000Y-22700000D01*
X178313338Y-21700482D02*
X182000000Y-25387144D01*
%TO.N,Net-(CN1-Pad5)*%
X171800000Y-44600000D02*
X171800000Y-50000000D01*
X181400000Y-35000000D02*
X171800000Y-44600000D01*
X139199999Y-22200001D02*
X178106429Y-22200001D01*
X181400000Y-25493572D02*
X181400000Y-35000000D01*
X138300000Y-27460000D02*
X138300000Y-23100000D01*
X138300000Y-23100000D02*
X139199999Y-22200001D01*
X178106429Y-22200001D02*
X181400000Y-25493572D01*
%TO.N,Net-(CN1-Pad10)*%
X156600000Y-45000000D02*
X154300000Y-45000000D01*
X163600000Y-38000000D02*
X156600000Y-45000000D01*
X173800000Y-26200000D02*
X173800000Y-34600000D01*
X172299520Y-24699520D02*
X173800000Y-26200000D01*
X152100480Y-24699520D02*
X172299520Y-24699520D01*
X173800000Y-34600000D02*
X170400000Y-38000000D01*
X151300000Y-25500000D02*
X152100480Y-24699520D01*
X170400000Y-38000000D02*
X163600000Y-38000000D01*
X151300000Y-27460000D02*
X151300000Y-25500000D01*
%TO.N,Net-(CN1-Pad31)*%
X138500000Y-72800000D02*
X143300000Y-68000000D01*
X129200000Y-72800000D02*
X138500000Y-72800000D01*
X126800000Y-75200000D02*
X129200000Y-72800000D01*
X110400000Y-75200000D02*
X126800000Y-75200000D01*
X109165462Y-37102403D02*
X105102402Y-41165465D01*
X126250000Y-28750000D02*
X117897599Y-37102401D01*
X105102402Y-41165465D02*
X105102402Y-69902402D01*
X161750000Y-28750000D02*
X126250000Y-28750000D01*
X117897599Y-37102401D02*
X109165462Y-37102403D01*
X163000000Y-30000000D02*
X161750000Y-28750000D01*
X105102402Y-69902402D02*
X110400000Y-75200000D01*
%TO.N,Net-(CN1-Pad33)*%
X133100000Y-71200000D02*
X136300000Y-68000000D01*
X128600000Y-71200000D02*
X133100000Y-71200000D01*
X111200000Y-73600000D02*
X126200000Y-73600000D01*
X121398559Y-38101441D02*
X109579280Y-38101441D01*
X109579280Y-38101441D02*
X106101442Y-41579279D01*
X106101442Y-41579279D02*
X106101442Y-68501442D01*
X106101442Y-68501442D02*
X111200000Y-73600000D01*
X126200000Y-73600000D02*
X128600000Y-71200000D01*
X126960000Y-32540000D02*
X121398559Y-38101441D01*
X127900000Y-32540000D02*
X126960000Y-32540000D01*
%TO.N,Net-(CN1-Pad32)*%
X139800000Y-68200000D02*
X139800000Y-63000000D01*
X136000000Y-72000000D02*
X139800000Y-68200000D01*
X128800000Y-72000000D02*
X136000000Y-72000000D01*
X126400000Y-74400000D02*
X128800000Y-72000000D01*
X110800000Y-74400000D02*
X126400000Y-74400000D01*
X109372371Y-37601922D02*
X105601922Y-41372372D01*
X105601922Y-41372372D02*
X105601922Y-69201922D01*
X119648079Y-37601921D02*
X109372371Y-37601922D01*
X105601922Y-69201922D02*
X110800000Y-74400000D01*
X126000000Y-31250000D02*
X119648079Y-37601921D01*
X164350000Y-31250000D02*
X126000000Y-31250000D01*
X165600000Y-30000000D02*
X164350000Y-31250000D01*
%TO.N,Net-(CN1-Pad34)*%
X132800000Y-67400000D02*
X132800000Y-63000000D01*
X129600000Y-70600000D02*
X132800000Y-67400000D01*
X128000000Y-70600000D02*
X129600000Y-70600000D01*
X109786182Y-38600963D02*
X106600961Y-41786187D01*
X111600000Y-72800000D02*
X125800000Y-72800000D01*
X124012062Y-38600960D02*
X109786182Y-38600963D01*
X125800000Y-72800000D02*
X128000000Y-70600000D01*
X130073022Y-32540000D02*
X124012062Y-38600960D01*
X106600961Y-41786187D02*
X106600961Y-67800961D01*
X130500000Y-32540000D02*
X130073022Y-32540000D01*
X106600961Y-67800961D02*
X111600000Y-72800000D01*
%TO.N,Net-(CN1-Pad35)*%
X126649520Y-39100480D02*
X109993091Y-39100481D01*
X133100000Y-32650000D02*
X126649520Y-39100480D01*
X109993091Y-39100481D02*
X107100480Y-41993093D01*
X111800000Y-72000000D02*
X125300000Y-72000000D01*
X133100000Y-32540000D02*
X133100000Y-32650000D01*
X107100480Y-41993093D02*
X107100480Y-67300480D01*
X107100480Y-67300480D02*
X111800000Y-72000000D01*
X125300000Y-72000000D02*
X129300000Y-68000000D01*
%TO.N,Net-(CN1-Pad41)*%
X159352881Y-91197119D02*
X164550000Y-86000000D01*
X132452125Y-91197119D02*
X159352881Y-91197119D01*
X127103364Y-85848358D02*
X132452125Y-91197119D01*
X145484743Y-74902401D02*
X130646181Y-74902401D01*
X147400000Y-72987144D02*
X145484743Y-74902401D01*
X127103364Y-78445218D02*
X127103364Y-85848358D01*
X147400000Y-33840000D02*
X147400000Y-72987144D01*
X148700000Y-32540000D02*
X147400000Y-33840000D01*
X130646181Y-74902401D02*
X127103364Y-78445218D01*
%TO.N,Net-(CN1-Pad36)*%
X125800000Y-67600000D02*
X125800000Y-63000000D01*
X122200000Y-71200000D02*
X125800000Y-67600000D01*
X112000000Y-71200000D02*
X122200000Y-71200000D01*
X107600000Y-42200000D02*
X107600000Y-66800000D01*
X107600000Y-66800000D02*
X112000000Y-71200000D01*
X110200000Y-39600000D02*
X107600000Y-42200000D01*
X128400000Y-39600000D02*
X110200000Y-39600000D01*
X135460000Y-32540000D02*
X128400000Y-39600000D01*
X135700000Y-32540000D02*
X135460000Y-32540000D01*
%TO.N,Net-(CN1-Pad37)*%
X108200000Y-66200000D02*
X112600000Y-70600000D01*
X110486665Y-40100480D02*
X108200000Y-42387144D01*
X119700000Y-70600000D02*
X122300000Y-68000000D01*
X130899520Y-40100480D02*
X110486665Y-40100480D01*
X108200000Y-42387144D02*
X108200000Y-66200000D01*
X112600000Y-70600000D02*
X119700000Y-70600000D01*
X138300000Y-32700000D02*
X130899520Y-40100480D01*
X138300000Y-32540000D02*
X138300000Y-32700000D01*
%TO.N,Net-(CN1-Pad38)*%
X118800000Y-69200000D02*
X118800000Y-63000000D01*
X113000000Y-69800000D02*
X118200000Y-69800000D01*
X108800000Y-42493572D02*
X108800000Y-65600000D01*
X118200000Y-69800000D02*
X118800000Y-69200000D01*
X110693572Y-40600000D02*
X108800000Y-42493572D01*
X132800000Y-40600000D02*
X110693572Y-40600000D01*
X108800000Y-65600000D02*
X113000000Y-69800000D01*
X140860000Y-32540000D02*
X132800000Y-40600000D01*
X140900000Y-32540000D02*
X140860000Y-32540000D01*
%TO.N,Net-(CN1-Pad39)*%
X113800000Y-68000000D02*
X115300000Y-68000000D01*
X110800000Y-41200000D02*
X109400000Y-42600000D01*
X109400000Y-42600000D02*
X109400000Y-63600000D01*
X109400000Y-63600000D02*
X113800000Y-68000000D01*
X134800000Y-41200000D02*
X110800000Y-41200000D01*
X143460000Y-32540000D02*
X134800000Y-41200000D01*
X143500000Y-32540000D02*
X143460000Y-32540000D01*
%TO.N,Net-(CN1-Pad40)*%
X110000000Y-61200000D02*
X111800000Y-63000000D01*
X110000000Y-42800000D02*
X110000000Y-61200000D01*
X111000000Y-41800000D02*
X110000000Y-42800000D01*
X136840000Y-41800000D02*
X111000000Y-41800000D01*
X146100000Y-32540000D02*
X136840000Y-41800000D01*
%TO.N,Net-(CN1-Pad42)*%
X161050000Y-86350000D02*
X161050000Y-81000000D01*
X156702401Y-90697599D02*
X161050000Y-86350000D01*
X132659034Y-90697599D02*
X156702401Y-90697599D01*
X127602882Y-85641449D02*
X132659034Y-90697599D01*
X127602881Y-78652129D02*
X127602882Y-85641449D01*
X145691652Y-75401920D02*
X130853087Y-75401922D01*
X130853087Y-75401922D02*
X127602881Y-78652129D01*
X148000000Y-36000000D02*
X148000000Y-73093572D01*
X151300000Y-32700000D02*
X148000000Y-36000000D01*
X148000000Y-73093572D02*
X145691652Y-75401920D01*
X151300000Y-32540000D02*
X151300000Y-32700000D01*
%TO.N,Net-(CN1-Pad43)*%
X153351921Y-90198079D02*
X157550000Y-86000000D01*
X148600000Y-73200000D02*
X145898560Y-75901440D01*
X132865941Y-90198079D02*
X153351921Y-90198079D01*
X148600000Y-37870000D02*
X148600000Y-73200000D01*
X128102401Y-78859036D02*
X128102401Y-85434540D01*
X153900000Y-32570000D02*
X148600000Y-37870000D01*
X131059996Y-75901441D02*
X128102401Y-78859036D01*
X153900000Y-32540000D02*
X153900000Y-32570000D01*
X145898560Y-75901440D02*
X131059996Y-75901441D01*
X128102401Y-85434540D02*
X132865941Y-90198079D01*
%TO.N,Net-(CN1-Pad44)*%
X154050000Y-88200000D02*
X154050000Y-81000000D01*
X152551441Y-89698559D02*
X154050000Y-88200000D01*
X133072848Y-89698559D02*
X152551441Y-89698559D01*
X128601922Y-85227633D02*
X133072848Y-89698559D01*
X128601920Y-79065945D02*
X128601922Y-85227633D01*
X131266905Y-76400960D02*
X128601920Y-79065945D01*
X154600000Y-36200000D02*
X149200000Y-41600000D01*
X156460000Y-32540000D02*
X154600000Y-34400000D01*
X149200000Y-41600000D02*
X149200000Y-73400000D01*
X149200000Y-73400000D02*
X146199040Y-76400960D01*
X146199040Y-76400960D02*
X131266905Y-76400960D01*
X156500000Y-32540000D02*
X156460000Y-32540000D01*
X154600000Y-34400000D02*
X154600000Y-36200000D01*
%TO.N,Net-(CN1-Pad45)*%
X147350961Y-89199039D02*
X150550000Y-86000000D01*
X133279756Y-89199039D02*
X147350961Y-89199039D01*
X129101441Y-85020724D02*
X133279756Y-89199039D01*
X129101440Y-79272852D02*
X129101441Y-85020724D01*
X146499520Y-76900480D02*
X131473812Y-76900480D01*
X149800000Y-41800000D02*
X149800000Y-73600000D01*
X149800000Y-73600000D02*
X146499520Y-76900480D01*
X131473812Y-76900480D02*
X129101440Y-79272852D01*
X153000000Y-38600000D02*
X149800000Y-41800000D01*
X156000000Y-38600000D02*
X153000000Y-38600000D01*
X159100000Y-35500000D02*
X156000000Y-38600000D01*
X159100000Y-32540000D02*
X159100000Y-35500000D01*
%TO.N,Net-(CN1-Pad46)*%
X147050000Y-87151920D02*
X147050000Y-81000000D01*
X145502400Y-88699520D02*
X147050000Y-87151920D01*
X133486665Y-88699520D02*
X145502400Y-88699520D01*
X129600960Y-84813815D02*
X133486665Y-88699520D01*
X129600960Y-79479759D02*
X129600960Y-84813815D01*
X131680718Y-77400000D02*
X129600960Y-79479759D01*
X150400000Y-73800000D02*
X146800000Y-77400000D01*
X150400000Y-42200000D02*
X150400000Y-73800000D01*
X153400000Y-39200000D02*
X150400000Y-42200000D01*
X156600000Y-39200000D02*
X153400000Y-39200000D01*
X146800000Y-77400000D02*
X131680718Y-77400000D01*
X161700000Y-34100000D02*
X156600000Y-39200000D01*
X161700000Y-32540000D02*
X161700000Y-34100000D01*
%TO.N,Net-(CN1-Pad49)*%
X135550000Y-87000000D02*
X136550000Y-86000000D01*
X134000000Y-87000000D02*
X135550000Y-87000000D01*
X131200000Y-84200000D02*
X134000000Y-87000000D01*
X131200000Y-80000000D02*
X131200000Y-84200000D01*
X132299520Y-78900480D02*
X131200000Y-80000000D01*
X152200000Y-74400000D02*
X147699520Y-78900480D01*
X152200000Y-43600000D02*
X152200000Y-74400000D01*
X147699520Y-78900480D02*
X132299520Y-78900480D01*
X157400000Y-41800000D02*
X154000000Y-41800000D01*
X162800000Y-36400000D02*
X157400000Y-41800000D01*
X154000000Y-41800000D02*
X152200000Y-43600000D01*
X169500000Y-32540000D02*
X165640000Y-36400000D01*
X165640000Y-36400000D02*
X162800000Y-36400000D01*
%TO.N,Net-(CN1-Pad47)*%
X143550000Y-87450000D02*
X143550000Y-86000000D01*
X142800000Y-88200000D02*
X143550000Y-87450000D01*
X133693572Y-88200000D02*
X142800000Y-88200000D01*
X130100481Y-84606909D02*
X133693572Y-88200000D01*
X130100480Y-79686666D02*
X130100481Y-84606909D01*
X131886664Y-77900481D02*
X130100480Y-79686666D01*
X147099520Y-77900480D02*
X131886664Y-77900481D01*
X153600000Y-40000000D02*
X151000000Y-42600000D01*
X157200000Y-40000000D02*
X153600000Y-40000000D01*
X151000000Y-42600000D02*
X151000000Y-74000000D01*
X151000000Y-74000000D02*
X147099520Y-77900480D01*
X164300000Y-33900000D02*
X163200000Y-35000000D01*
X164300000Y-32540000D02*
X164300000Y-33900000D01*
X163200000Y-35000000D02*
X162200000Y-35000000D01*
X162200000Y-35000000D02*
X157200000Y-40000000D01*
%TO.N,Net-(CN1-Pad48)*%
X140050000Y-86356427D02*
X140050000Y-81000000D01*
X138806427Y-87600000D02*
X140050000Y-86356427D01*
X133800000Y-87600000D02*
X138806427Y-87600000D01*
X130600000Y-84400000D02*
X133800000Y-87600000D01*
X132093573Y-78400000D02*
X130600000Y-79893573D01*
X151600000Y-74200000D02*
X147400000Y-78400000D01*
X151600000Y-43000000D02*
X151600000Y-74200000D01*
X153600000Y-41000000D02*
X151600000Y-43000000D01*
X147400000Y-78400000D02*
X132093573Y-78400000D01*
X157200000Y-41000000D02*
X153600000Y-41000000D01*
X163640000Y-35800000D02*
X162400000Y-35800000D01*
X130600000Y-79893573D02*
X130600000Y-84400000D01*
X162400000Y-35800000D02*
X157200000Y-41000000D01*
X166900000Y-32540000D02*
X163640000Y-35800000D01*
%TO.N,Net-(CN1-Pad50)*%
X134650000Y-79400000D02*
X133050000Y-81000000D01*
X152800000Y-74600000D02*
X148000000Y-79400000D01*
X152800000Y-44200000D02*
X152800000Y-74600000D01*
X154400000Y-42600000D02*
X152800000Y-44200000D01*
X148000000Y-79400000D02*
X134650000Y-79400000D01*
X157800000Y-42600000D02*
X154400000Y-42600000D01*
X167640000Y-37000000D02*
X163400000Y-37000000D01*
X163400000Y-37000000D02*
X157800000Y-42600000D01*
X172100000Y-32540000D02*
X167640000Y-37000000D01*
%TD*%
M02*
