M48
; DRILL file {KiCad (6.0.4)} date Sat May  7 21:30:56 2022
; FORMAT={-:-/ absolute / metric / decimal}
; #@! TF.CreationDate,2022-05-07T21:30:56+10:00
; #@! TF.GenerationSoftware,Kicad,Pcbnew,(6.0.4)
; #@! TF.FileFunction,Plated,1,2,PTH
FMAT,2
METRIC
; #@! TA.AperFunction,Plated,PTH,ComponentDrill
T1C0.900
; #@! TA.AperFunction,Plated,PTH,ComponentDrill
T2C1.000
%
G90
G05
T1
X140.2Y-27.46
X140.2Y-32.54
X141.5Y-30.0
X142.8Y-27.46
X142.8Y-32.54
X144.1Y-30.0
X145.4Y-27.46
X145.4Y-32.54
X146.7Y-30.0
X148.0Y-27.46
X148.0Y-32.54
X149.3Y-30.0
X150.6Y-27.46
X150.6Y-32.54
X151.9Y-30.0
X153.2Y-27.46
X153.2Y-32.54
X154.5Y-30.0
X155.8Y-27.46
X155.8Y-32.54
T2
X108.5Y-45.0
X112.0Y-50.0
X115.5Y-45.0
X119.0Y-50.0
X122.5Y-45.0
X126.0Y-50.0
X129.5Y-45.0
X133.0Y-50.0
X136.5Y-45.0
X140.0Y-50.0
X154.5Y-45.0
X158.0Y-50.0
X161.5Y-45.0
X165.0Y-50.0
X168.5Y-45.0
X172.0Y-50.0
X175.5Y-45.0
X179.0Y-50.0
X182.5Y-45.0
X186.0Y-50.0
T0
M30
