%TF.GenerationSoftware,KiCad,Pcbnew,(6.0.4)*%
%TF.CreationDate,2022-05-07T21:31:00+10:00*%
%TF.ProjectId,mr-20-breakout,6d722d32-302d-4627-9265-616b6f75742e,rev?*%
%TF.SameCoordinates,Original*%
%TF.FileFunction,Copper,L2,Bot*%
%TF.FilePolarity,Positive*%
%FSLAX46Y46*%
G04 Gerber Fmt 4.6, Leading zero omitted, Abs format (unit mm)*
G04 Created by KiCad (PCBNEW (6.0.4)) date 2022-05-07 21:31:00*
%MOMM*%
%LPD*%
G01*
G04 APERTURE LIST*
%TA.AperFunction,ComponentPad*%
%ADD10R,1.524000X1.524000*%
%TD*%
%TA.AperFunction,ComponentPad*%
%ADD11C,1.524000*%
%TD*%
%TA.AperFunction,Conductor*%
%ADD12C,0.300000*%
%TD*%
G04 APERTURE END LIST*
D10*
%TO.P,CN1,1*%
%TO.N,Net-(CN1-Pad1)*%
X140200000Y-27460000D03*
%TO.P,CN1,2*%
%TO.N,Net-(CN1-Pad2)*%
X142800000Y-27460000D03*
%TO.P,CN1,3*%
%TO.N,Net-(CN1-Pad3)*%
X145400000Y-27460000D03*
%TO.P,CN1,4*%
%TO.N,Net-(CN1-Pad4)*%
X148000000Y-27460000D03*
%TO.P,CN1,5*%
%TO.N,Net-(CN1-Pad5)*%
X150600000Y-27460000D03*
%TO.P,CN1,6*%
%TO.N,Net-(CN1-Pad6)*%
X153200000Y-27460000D03*
%TO.P,CN1,7*%
%TO.N,Net-(CN1-Pad7)*%
X155800000Y-27460000D03*
%TO.P,CN1,8*%
%TO.N,Net-(CN1-Pad8)*%
X141500000Y-30000000D03*
%TO.P,CN1,9*%
%TO.N,Net-(CN1-Pad9)*%
X144100000Y-30000000D03*
%TO.P,CN1,10*%
%TO.N,Net-(CN1-Pad10)*%
X146700000Y-30000000D03*
%TO.P,CN1,11*%
%TO.N,Net-(CN1-Pad11)*%
X149300000Y-30000000D03*
%TO.P,CN1,12*%
%TO.N,Net-(CN1-Pad12)*%
X151900000Y-30000000D03*
%TO.P,CN1,13*%
%TO.N,Net-(CN1-Pad13)*%
X154500000Y-30000000D03*
%TO.P,CN1,14*%
%TO.N,Net-(CN1-Pad14)*%
X140200000Y-32540000D03*
%TO.P,CN1,15*%
%TO.N,Net-(CN1-Pad15)*%
X142800000Y-32540000D03*
%TO.P,CN1,16*%
%TO.N,Net-(CN1-Pad16)*%
X145400000Y-32540000D03*
%TO.P,CN1,17*%
%TO.N,Net-(CN1-Pad17)*%
X148000000Y-32540000D03*
%TO.P,CN1,18*%
%TO.N,Net-(CN1-Pad18)*%
X150600000Y-32540000D03*
%TO.P,CN1,19*%
%TO.N,Net-(CN1-Pad19)*%
X153200000Y-32540000D03*
%TO.P,CN1,20*%
%TO.N,Net-(CN1-Pad20)*%
X155800000Y-32540000D03*
%TD*%
D11*
%TO.P,J2,10,Pin_10*%
%TO.N,Net-(CN1-Pad20)*%
X108500000Y-45000000D03*
%TO.P,J2,9,Pin_9*%
%TO.N,Net-(CN1-Pad19)*%
X112000000Y-50000000D03*
%TO.P,J2,8,Pin_8*%
%TO.N,Net-(CN1-Pad18)*%
X115500000Y-45000000D03*
%TO.P,J2,7,Pin_7*%
%TO.N,Net-(CN1-Pad17)*%
X119000000Y-50000000D03*
%TO.P,J2,6,Pin_6*%
%TO.N,Net-(CN1-Pad16)*%
X122500000Y-45000000D03*
%TO.P,J2,5,Pin_5*%
%TO.N,Net-(CN1-Pad15)*%
X126000000Y-50000000D03*
%TO.P,J2,4,Pin_4*%
%TO.N,Net-(CN1-Pad14)*%
X129500000Y-45000000D03*
%TO.P,J2,3,Pin_3*%
%TO.N,Net-(CN1-Pad13)*%
X133000000Y-50000000D03*
%TO.P,J2,2,Pin_2*%
%TO.N,Net-(CN1-Pad12)*%
X136500000Y-45000000D03*
D10*
%TO.P,J2,1,Pin_1*%
%TO.N,Net-(CN1-Pad11)*%
X140000000Y-50000000D03*
%TD*%
%TO.P,J1,1,Pin_1*%
%TO.N,Net-(CN1-Pad1)*%
X186000000Y-50000000D03*
D11*
%TO.P,J1,2,Pin_2*%
%TO.N,Net-(CN1-Pad2)*%
X182500000Y-45000000D03*
%TO.P,J1,3,Pin_3*%
%TO.N,Net-(CN1-Pad3)*%
X179000000Y-50000000D03*
%TO.P,J1,4,Pin_4*%
%TO.N,Net-(CN1-Pad4)*%
X175500000Y-45000000D03*
%TO.P,J1,5,Pin_5*%
%TO.N,Net-(CN1-Pad5)*%
X172000000Y-50000000D03*
%TO.P,J1,6,Pin_6*%
%TO.N,Net-(CN1-Pad6)*%
X168500000Y-45000000D03*
%TO.P,J1,7,Pin_7*%
%TO.N,Net-(CN1-Pad7)*%
X165000000Y-50000000D03*
%TO.P,J1,8,Pin_8*%
%TO.N,Net-(CN1-Pad8)*%
X161500000Y-45000000D03*
%TO.P,J1,9,Pin_9*%
%TO.N,Net-(CN1-Pad9)*%
X158000000Y-50000000D03*
%TO.P,J1,10,Pin_10*%
%TO.N,Net-(CN1-Pad10)*%
X154500000Y-45000000D03*
%TD*%
D12*
%TO.N,Net-(CN1-Pad11)*%
X140000000Y-38000000D02*
X140000000Y-50000000D01*
X126500000Y-35500000D02*
X127500000Y-36500000D01*
X126500000Y-25000000D02*
X126500000Y-35500000D01*
X138500000Y-36500000D02*
X140000000Y-38000000D01*
X149300000Y-25300000D02*
X148000000Y-24000000D01*
X149300000Y-30000000D02*
X149300000Y-25300000D01*
X148000000Y-24000000D02*
X127500000Y-24000000D01*
X127500000Y-24000000D02*
X126500000Y-25000000D01*
X127500000Y-36500000D02*
X138500000Y-36500000D01*
%TO.N,Net-(CN1-Pad13)*%
X133000000Y-40500000D02*
X133000000Y-50000000D01*
X132000000Y-39500000D02*
X133000000Y-40500000D01*
X127250000Y-39500000D02*
X132000000Y-39500000D01*
X124500000Y-36750000D02*
X127250000Y-39500000D01*
X124500000Y-24000000D02*
X124500000Y-36750000D01*
X154500000Y-23500000D02*
X153000000Y-22000000D01*
X126500000Y-22000000D02*
X124500000Y-24000000D01*
X154500000Y-30000000D02*
X154500000Y-23500000D01*
X153000000Y-22000000D02*
X126500000Y-22000000D01*
%TO.N,Net-(CN1-Pad12)*%
X136500000Y-39000000D02*
X136500000Y-45000000D01*
X127500000Y-38000000D02*
X135500000Y-38000000D01*
X125500000Y-24500000D02*
X125500000Y-36000000D01*
X125500000Y-36000000D02*
X127500000Y-38000000D01*
X127000000Y-23000000D02*
X125500000Y-24500000D01*
X135500000Y-38000000D02*
X136500000Y-39000000D01*
X151900000Y-24400000D02*
X150500000Y-23000000D01*
X150500000Y-23000000D02*
X127000000Y-23000000D01*
X151900000Y-30000000D02*
X151900000Y-24400000D01*
%TO.N,Net-(CN1-Pad10)*%
X149000000Y-45000000D02*
X154500000Y-45000000D01*
X146700000Y-42700000D02*
X149000000Y-45000000D01*
X146700000Y-30000000D02*
X146700000Y-42700000D01*
%TO.N,Net-(CN1-Pad9)*%
X147000000Y-50000000D02*
X158000000Y-50000000D01*
X144100000Y-47100000D02*
X147000000Y-50000000D01*
X144100000Y-30000000D02*
X144100000Y-47100000D01*
%TD*%
M02*
