%TF.GenerationSoftware,KiCad,Pcbnew,(6.0.4)*%
%TF.CreationDate,2022-05-02T02:18:10+10:00*%
%TF.ProjectId,mr-50-breakout,6d722d35-302d-4627-9265-616b6f75742e,rev?*%
%TF.SameCoordinates,Original*%
%TF.FileFunction,Legend,Top*%
%TF.FilePolarity,Positive*%
%FSLAX46Y46*%
G04 Gerber Fmt 4.6, Leading zero omitted, Abs format (unit mm)*
G04 Created by KiCad (PCBNEW (6.0.4)) date 2022-05-02 02:18:10*
%MOMM*%
%LPD*%
G01*
G04 APERTURE LIST*
%ADD10C,0.300000*%
%ADD11C,0.150000*%
%ADD12C,0.153000*%
%ADD13C,0.120000*%
G04 APERTURE END LIST*
D10*
X137671428Y-92678571D02*
X137671428Y-91178571D01*
X138171428Y-92250000D01*
X138671428Y-91178571D01*
X138671428Y-92678571D01*
X140242857Y-92678571D02*
X139742857Y-91964285D01*
X139385714Y-92678571D02*
X139385714Y-91178571D01*
X139957142Y-91178571D01*
X140100000Y-91250000D01*
X140171428Y-91321428D01*
X140242857Y-91464285D01*
X140242857Y-91678571D01*
X140171428Y-91821428D01*
X140100000Y-91892857D01*
X139957142Y-91964285D01*
X139385714Y-91964285D01*
X140885714Y-92107142D02*
X142028571Y-92107142D01*
X143457142Y-91178571D02*
X142742857Y-91178571D01*
X142671428Y-91892857D01*
X142742857Y-91821428D01*
X142885714Y-91750000D01*
X143242857Y-91750000D01*
X143385714Y-91821428D01*
X143457142Y-91892857D01*
X143528571Y-92035714D01*
X143528571Y-92392857D01*
X143457142Y-92535714D01*
X143385714Y-92607142D01*
X143242857Y-92678571D01*
X142885714Y-92678571D01*
X142742857Y-92607142D01*
X142671428Y-92535714D01*
X144457142Y-91178571D02*
X144600000Y-91178571D01*
X144742857Y-91250000D01*
X144814285Y-91321428D01*
X144885714Y-91464285D01*
X144957142Y-91750000D01*
X144957142Y-92107142D01*
X144885714Y-92392857D01*
X144814285Y-92535714D01*
X144742857Y-92607142D01*
X144600000Y-92678571D01*
X144457142Y-92678571D01*
X144314285Y-92607142D01*
X144242857Y-92535714D01*
X144171428Y-92392857D01*
X144100000Y-92107142D01*
X144100000Y-91750000D01*
X144171428Y-91464285D01*
X144242857Y-91321428D01*
X144314285Y-91250000D01*
X144457142Y-91178571D01*
X147242857Y-91892857D02*
X147457142Y-91964285D01*
X147528571Y-92035714D01*
X147600000Y-92178571D01*
X147600000Y-92392857D01*
X147528571Y-92535714D01*
X147457142Y-92607142D01*
X147314285Y-92678571D01*
X146742857Y-92678571D01*
X146742857Y-91178571D01*
X147242857Y-91178571D01*
X147385714Y-91250000D01*
X147457142Y-91321428D01*
X147528571Y-91464285D01*
X147528571Y-91607142D01*
X147457142Y-91750000D01*
X147385714Y-91821428D01*
X147242857Y-91892857D01*
X146742857Y-91892857D01*
X148242857Y-92678571D02*
X148242857Y-91678571D01*
X148242857Y-91964285D02*
X148314285Y-91821428D01*
X148385714Y-91750000D01*
X148528571Y-91678571D01*
X148671428Y-91678571D01*
X149742857Y-92607142D02*
X149600000Y-92678571D01*
X149314285Y-92678571D01*
X149171428Y-92607142D01*
X149100000Y-92464285D01*
X149100000Y-91892857D01*
X149171428Y-91750000D01*
X149314285Y-91678571D01*
X149600000Y-91678571D01*
X149742857Y-91750000D01*
X149814285Y-91892857D01*
X149814285Y-92035714D01*
X149100000Y-92178571D01*
X151100000Y-92678571D02*
X151100000Y-91892857D01*
X151028571Y-91750000D01*
X150885714Y-91678571D01*
X150600000Y-91678571D01*
X150457142Y-91750000D01*
X151100000Y-92607142D02*
X150957142Y-92678571D01*
X150600000Y-92678571D01*
X150457142Y-92607142D01*
X150385714Y-92464285D01*
X150385714Y-92321428D01*
X150457142Y-92178571D01*
X150600000Y-92107142D01*
X150957142Y-92107142D01*
X151100000Y-92035714D01*
X151814285Y-92678571D02*
X151814285Y-91178571D01*
X151957142Y-92107142D02*
X152385714Y-92678571D01*
X152385714Y-91678571D02*
X151814285Y-92250000D01*
X153242857Y-92678571D02*
X153100000Y-92607142D01*
X153028571Y-92535714D01*
X152957142Y-92392857D01*
X152957142Y-91964285D01*
X153028571Y-91821428D01*
X153100000Y-91750000D01*
X153242857Y-91678571D01*
X153457142Y-91678571D01*
X153600000Y-91750000D01*
X153671428Y-91821428D01*
X153742857Y-91964285D01*
X153742857Y-92392857D01*
X153671428Y-92535714D01*
X153600000Y-92607142D01*
X153457142Y-92678571D01*
X153242857Y-92678571D01*
X155028571Y-91678571D02*
X155028571Y-92678571D01*
X154385714Y-91678571D02*
X154385714Y-92464285D01*
X154457142Y-92607142D01*
X154600000Y-92678571D01*
X154814285Y-92678571D01*
X154957142Y-92607142D01*
X155028571Y-92535714D01*
X155528571Y-91678571D02*
X156100000Y-91678571D01*
X155742857Y-91178571D02*
X155742857Y-92464285D01*
X155814285Y-92607142D01*
X155957142Y-92678571D01*
X156100000Y-92678571D01*
X158242857Y-91892857D02*
X158457142Y-91964285D01*
X158528571Y-92035714D01*
X158600000Y-92178571D01*
X158600000Y-92392857D01*
X158528571Y-92535714D01*
X158457142Y-92607142D01*
X158314285Y-92678571D01*
X157742857Y-92678571D01*
X157742857Y-91178571D01*
X158242857Y-91178571D01*
X158385714Y-91250000D01*
X158457142Y-91321428D01*
X158528571Y-91464285D01*
X158528571Y-91607142D01*
X158457142Y-91750000D01*
X158385714Y-91821428D01*
X158242857Y-91892857D01*
X157742857Y-91892857D01*
X159457142Y-92678571D02*
X159314285Y-92607142D01*
X159242857Y-92535714D01*
X159171428Y-92392857D01*
X159171428Y-91964285D01*
X159242857Y-91821428D01*
X159314285Y-91750000D01*
X159457142Y-91678571D01*
X159671428Y-91678571D01*
X159814285Y-91750000D01*
X159885714Y-91821428D01*
X159957142Y-91964285D01*
X159957142Y-92392857D01*
X159885714Y-92535714D01*
X159814285Y-92607142D01*
X159671428Y-92678571D01*
X159457142Y-92678571D01*
X161242857Y-92678571D02*
X161242857Y-91892857D01*
X161171428Y-91750000D01*
X161028571Y-91678571D01*
X160742857Y-91678571D01*
X160600000Y-91750000D01*
X161242857Y-92607142D02*
X161100000Y-92678571D01*
X160742857Y-92678571D01*
X160600000Y-92607142D01*
X160528571Y-92464285D01*
X160528571Y-92321428D01*
X160600000Y-92178571D01*
X160742857Y-92107142D01*
X161100000Y-92107142D01*
X161242857Y-92035714D01*
X161957142Y-92678571D02*
X161957142Y-91678571D01*
X161957142Y-91964285D02*
X162028571Y-91821428D01*
X162100000Y-91750000D01*
X162242857Y-91678571D01*
X162385714Y-91678571D01*
X163528571Y-92678571D02*
X163528571Y-91178571D01*
X163528571Y-92607142D02*
X163385714Y-92678571D01*
X163100000Y-92678571D01*
X162957142Y-92607142D01*
X162885714Y-92535714D01*
X162814285Y-92392857D01*
X162814285Y-91964285D01*
X162885714Y-91821428D01*
X162957142Y-91750000D01*
X163100000Y-91678571D01*
X163385714Y-91678571D01*
X163528571Y-91750000D01*
D11*
%TO.C,J5*%
X150216666Y-88952380D02*
X150216666Y-89666666D01*
X150169047Y-89809523D01*
X150073809Y-89904761D01*
X149930952Y-89952380D01*
X149835714Y-89952380D01*
X151169047Y-88952380D02*
X150692857Y-88952380D01*
X150645238Y-89428571D01*
X150692857Y-89380952D01*
X150788095Y-89333333D01*
X151026190Y-89333333D01*
X151121428Y-89380952D01*
X151169047Y-89428571D01*
X151216666Y-89523809D01*
X151216666Y-89761904D01*
X151169047Y-89857142D01*
X151121428Y-89904761D01*
X151026190Y-89952380D01*
X150788095Y-89952380D01*
X150692857Y-89904761D01*
X150645238Y-89857142D01*
D12*
X170264285Y-85785714D02*
X170264285Y-86452380D01*
X170026190Y-85404761D02*
X169788095Y-86119047D01*
X170407142Y-86119047D01*
X171311904Y-86452380D02*
X170740476Y-86452380D01*
X171026190Y-86452380D02*
X171026190Y-85452380D01*
X170930952Y-85595238D01*
X170835714Y-85690476D01*
X170740476Y-85738095D01*
D11*
%TO.C,J4*%
X128966666Y-70952380D02*
X128966666Y-71666666D01*
X128919047Y-71809523D01*
X128823809Y-71904761D01*
X128680952Y-71952380D01*
X128585714Y-71952380D01*
X129871428Y-71285714D02*
X129871428Y-71952380D01*
X129633333Y-70904761D02*
X129395238Y-71619047D01*
X130014285Y-71619047D01*
D12*
X148490476Y-67452380D02*
X149109523Y-67452380D01*
X148776190Y-67833333D01*
X148919047Y-67833333D01*
X149014285Y-67880952D01*
X149061904Y-67928571D01*
X149109523Y-68023809D01*
X149109523Y-68261904D01*
X149061904Y-68357142D01*
X149014285Y-68404761D01*
X148919047Y-68452380D01*
X148633333Y-68452380D01*
X148538095Y-68404761D01*
X148490476Y-68357142D01*
X150061904Y-68452380D02*
X149490476Y-68452380D01*
X149776190Y-68452380D02*
X149776190Y-67452380D01*
X149680952Y-67595238D01*
X149585714Y-67690476D01*
X149490476Y-67738095D01*
D11*
%TO.C,J3*%
X171466666Y-70952380D02*
X171466666Y-71666666D01*
X171419047Y-71809523D01*
X171323809Y-71904761D01*
X171180952Y-71952380D01*
X171085714Y-71952380D01*
X171847619Y-70952380D02*
X172466666Y-70952380D01*
X172133333Y-71333333D01*
X172276190Y-71333333D01*
X172371428Y-71380952D01*
X172419047Y-71428571D01*
X172466666Y-71523809D01*
X172466666Y-71761904D01*
X172419047Y-71857142D01*
X172371428Y-71904761D01*
X172276190Y-71952380D01*
X171990476Y-71952380D01*
X171895238Y-71904761D01*
X171847619Y-71857142D01*
D12*
X191038095Y-67547619D02*
X191085714Y-67500000D01*
X191180952Y-67452380D01*
X191419047Y-67452380D01*
X191514285Y-67500000D01*
X191561904Y-67547619D01*
X191609523Y-67642857D01*
X191609523Y-67738095D01*
X191561904Y-67880952D01*
X190990476Y-68452380D01*
X191609523Y-68452380D01*
X192561904Y-68452380D02*
X191990476Y-68452380D01*
X192276190Y-68452380D02*
X192276190Y-67452380D01*
X192180952Y-67595238D01*
X192085714Y-67690476D01*
X191990476Y-67738095D01*
D11*
%TO.C,J2*%
X128966666Y-52952380D02*
X128966666Y-53666666D01*
X128919047Y-53809523D01*
X128823809Y-53904761D01*
X128680952Y-53952380D01*
X128585714Y-53952380D01*
X129395238Y-53047619D02*
X129442857Y-53000000D01*
X129538095Y-52952380D01*
X129776190Y-52952380D01*
X129871428Y-53000000D01*
X129919047Y-53047619D01*
X129966666Y-53142857D01*
X129966666Y-53238095D01*
X129919047Y-53380952D01*
X129347619Y-53952380D01*
X129966666Y-53952380D01*
D12*
X149109523Y-50452380D02*
X148538095Y-50452380D01*
X148823809Y-50452380D02*
X148823809Y-49452380D01*
X148728571Y-49595238D01*
X148633333Y-49690476D01*
X148538095Y-49738095D01*
X150061904Y-50452380D02*
X149490476Y-50452380D01*
X149776190Y-50452380D02*
X149776190Y-49452380D01*
X149680952Y-49595238D01*
X149585714Y-49690476D01*
X149490476Y-49738095D01*
D11*
%TO.C,J1*%
X171466666Y-52952380D02*
X171466666Y-53666666D01*
X171419047Y-53809523D01*
X171323809Y-53904761D01*
X171180952Y-53952380D01*
X171085714Y-53952380D01*
X172466666Y-53952380D02*
X171895238Y-53952380D01*
X172180952Y-53952380D02*
X172180952Y-52952380D01*
X172085714Y-53095238D01*
X171990476Y-53190476D01*
X171895238Y-53238095D01*
D12*
X192085714Y-50452380D02*
X191514285Y-50452380D01*
X191800000Y-50452380D02*
X191800000Y-49452380D01*
X191704761Y-49595238D01*
X191609523Y-49690476D01*
X191514285Y-49738095D01*
%TO.C,CN1*%
X149309523Y-37357142D02*
X149261904Y-37404761D01*
X149119047Y-37452380D01*
X149023809Y-37452380D01*
X148880952Y-37404761D01*
X148785714Y-37309523D01*
X148738095Y-37214285D01*
X148690476Y-37023809D01*
X148690476Y-36880952D01*
X148738095Y-36690476D01*
X148785714Y-36595238D01*
X148880952Y-36500000D01*
X149023809Y-36452380D01*
X149119047Y-36452380D01*
X149261904Y-36500000D01*
X149309523Y-36547619D01*
X149738095Y-37452380D02*
X149738095Y-36452380D01*
X150309523Y-37452380D01*
X150309523Y-36452380D01*
X151309523Y-37452380D02*
X150738095Y-37452380D01*
X151023809Y-37452380D02*
X151023809Y-36452380D01*
X150928571Y-36595238D01*
X150833333Y-36690476D01*
X150738095Y-36738095D01*
X114257692Y-30452380D02*
X113686264Y-30452380D01*
X113971978Y-30452380D02*
X113971978Y-29452380D01*
X113876740Y-29595238D01*
X113781502Y-29690476D01*
X113686264Y-29738095D01*
X114733883Y-30452380D02*
X114924359Y-30452380D01*
X115019597Y-30404761D01*
X115067216Y-30357142D01*
X115162454Y-30214285D01*
X115210073Y-30023809D01*
X115210073Y-29642857D01*
X115162454Y-29547619D01*
X115114835Y-29500000D01*
X115019597Y-29452380D01*
X114829121Y-29452380D01*
X114733883Y-29500000D01*
X114686264Y-29547619D01*
X114638645Y-29642857D01*
X114638645Y-29880952D01*
X114686264Y-29976190D01*
X114733883Y-30023809D01*
X114829121Y-30071428D01*
X115019597Y-30071428D01*
X115114835Y-30023809D01*
X115162454Y-29976190D01*
X115210073Y-29880952D01*
X115210073Y-27952380D02*
X114638645Y-27952380D01*
X114924359Y-27952380D02*
X114924359Y-26952380D01*
X114829121Y-27095238D01*
X114733883Y-27190476D01*
X114638645Y-27238095D01*
X113638645Y-31952380D02*
X114257692Y-31952380D01*
X113924359Y-32333333D01*
X114067216Y-32333333D01*
X114162454Y-32380952D01*
X114210073Y-32428571D01*
X114257692Y-32523809D01*
X114257692Y-32761904D01*
X114210073Y-32857142D01*
X114162454Y-32904761D01*
X114067216Y-32952380D01*
X113781502Y-32952380D01*
X113686264Y-32904761D01*
X113638645Y-32857142D01*
X114591026Y-31952380D02*
X115210073Y-31952380D01*
X114876740Y-32333333D01*
X115019597Y-32333333D01*
X115114835Y-32380952D01*
X115162454Y-32428571D01*
X115210073Y-32523809D01*
X115210073Y-32761904D01*
X115162454Y-32857142D01*
X115114835Y-32904761D01*
X115019597Y-32952380D01*
X114733883Y-32952380D01*
X114638645Y-32904761D01*
X114591026Y-32857142D01*
%TO.C,J5*%
X131300000Y-88300000D02*
X167800000Y-88300000D01*
X167800000Y-88300000D02*
X167800000Y-76300000D01*
X167800000Y-76300000D02*
X131300000Y-76300000D01*
X131300000Y-76300000D02*
X131300000Y-88300000D01*
G36*
X169050000Y-86500000D02*
G01*
X168550000Y-86000000D01*
X169050000Y-85500000D01*
X169050000Y-86500000D01*
G37*
X169050000Y-86500000D02*
X168550000Y-86000000D01*
X169050000Y-85500000D01*
X169050000Y-86500000D01*
%TO.C,J4*%
X110050000Y-70300000D02*
X146550000Y-70300000D01*
X146550000Y-70300000D02*
X146550000Y-58300000D01*
X146550000Y-58300000D02*
X110050000Y-58300000D01*
X110050000Y-58300000D02*
X110050000Y-70300000D01*
G36*
X147800000Y-68500000D02*
G01*
X147300000Y-68000000D01*
X147800000Y-67500000D01*
X147800000Y-68500000D01*
G37*
X147800000Y-68500000D02*
X147300000Y-68000000D01*
X147800000Y-67500000D01*
X147800000Y-68500000D01*
%TO.C,J3*%
X152550000Y-70300000D02*
X189050000Y-70300000D01*
X189050000Y-70300000D02*
X189050000Y-58300000D01*
X189050000Y-58300000D02*
X152550000Y-58300000D01*
X152550000Y-58300000D02*
X152550000Y-70300000D01*
G36*
X190300000Y-68500000D02*
G01*
X189800000Y-68000000D01*
X190300000Y-67500000D01*
X190300000Y-68500000D01*
G37*
X190300000Y-68500000D02*
X189800000Y-68000000D01*
X190300000Y-67500000D01*
X190300000Y-68500000D01*
%TO.C,J2*%
G36*
X147800000Y-50500000D02*
G01*
X147300000Y-50000000D01*
X147800000Y-49500000D01*
X147800000Y-50500000D01*
G37*
X147800000Y-50500000D02*
X147300000Y-50000000D01*
X147800000Y-49500000D01*
X147800000Y-50500000D01*
X110050000Y-40300000D02*
X110050000Y-52300000D01*
X146550000Y-40300000D02*
X110050000Y-40300000D01*
X146550000Y-52300000D02*
X146550000Y-40300000D01*
X110050000Y-52300000D02*
X146550000Y-52300000D01*
%TO.C,J1*%
X152550000Y-52300000D02*
X189050000Y-52300000D01*
X189050000Y-52300000D02*
X189050000Y-40300000D01*
X189050000Y-40300000D02*
X152550000Y-40300000D01*
X152550000Y-40300000D02*
X152550000Y-52300000D01*
G36*
X190300000Y-50500000D02*
G01*
X189800000Y-50000000D01*
X190300000Y-49500000D01*
X190300000Y-50500000D01*
G37*
X190300000Y-50500000D02*
X189800000Y-50000000D01*
X190300000Y-49500000D01*
X190300000Y-50500000D01*
%TO.C,CN1*%
X117200000Y-35160000D02*
X182800000Y-35160000D01*
X182800000Y-35160000D02*
X182800000Y-21960000D01*
X117200000Y-35160000D02*
X117200000Y-21960000D01*
X117200000Y-21960000D02*
X182800000Y-21960000D01*
G36*
X116500000Y-27500000D02*
G01*
X116000000Y-28000000D01*
X116000000Y-27000000D01*
X116500000Y-27500000D01*
G37*
D13*
X116500000Y-27500000D02*
X116000000Y-28000000D01*
X116000000Y-27000000D01*
X116500000Y-27500000D01*
%TD*%
M02*
