M48
; DRILL file {KiCad (6.0.4)} date Mon May  2 02:17:51 2022
; FORMAT={-:-/ absolute / metric / decimal}
; #@! TF.CreationDate,2022-05-02T02:17:51+10:00
; #@! TF.GenerationSoftware,Kicad,Pcbnew,(6.0.4)
; #@! TF.FileFunction,Plated,1,2,PTH
FMAT,2
METRIC
; #@! TA.AperFunction,Plated,PTH,ComponentDrill
T1C0.900
; #@! TA.AperFunction,Plated,PTH,ComponentDrill
T2C1.000
%
G90
G05
T1
X127.9Y-27.46
X127.9Y-32.54
X130.5Y-27.46
X130.5Y-32.54
X131.8Y-30.0
X133.1Y-27.46
X133.1Y-32.54
X134.4Y-30.0
X135.7Y-27.46
X135.7Y-32.54
X137.0Y-30.0
X138.3Y-27.46
X138.3Y-32.54
X139.6Y-30.0
X140.9Y-27.46
X140.9Y-32.54
X142.2Y-30.0
X143.5Y-27.46
X143.5Y-32.54
X144.8Y-30.0
X146.1Y-27.46
X146.1Y-32.54
X147.4Y-30.0
X148.7Y-27.46
X148.7Y-32.54
X150.0Y-30.0
X151.3Y-27.46
X151.3Y-32.54
X152.6Y-30.0
X153.9Y-27.46
X153.9Y-32.54
X155.2Y-30.0
X156.5Y-27.46
X156.5Y-32.54
X157.8Y-30.0
X159.1Y-27.46
X159.1Y-32.54
X160.4Y-30.0
X161.7Y-27.46
X161.7Y-32.54
X163.0Y-30.0
X164.3Y-27.46
X164.3Y-32.54
X165.6Y-30.0
X166.9Y-27.46
X166.9Y-32.54
X169.5Y-27.46
X169.5Y-32.54
X172.1Y-27.46
X172.1Y-32.54
T2
X111.8Y-45.0
X111.8Y-63.0
X115.3Y-50.0
X115.3Y-68.0
X118.8Y-45.0
X118.8Y-63.0
X122.3Y-50.0
X122.3Y-68.0
X125.8Y-45.0
X125.8Y-63.0
X129.3Y-50.0
X129.3Y-68.0
X132.8Y-45.0
X132.8Y-63.0
X133.05Y-81.0
X136.3Y-50.0
X136.3Y-68.0
X136.55Y-86.0
X139.8Y-45.0
X139.8Y-63.0
X140.05Y-81.0
X143.3Y-50.0
X143.3Y-68.0
X143.55Y-86.0
X147.05Y-81.0
X150.55Y-86.0
X154.05Y-81.0
X154.3Y-45.0
X154.3Y-63.0
X157.55Y-86.0
X157.8Y-50.0
X157.8Y-68.0
X161.05Y-81.0
X161.3Y-45.0
X161.3Y-63.0
X164.55Y-86.0
X164.8Y-50.0
X164.8Y-68.0
X168.3Y-45.0
X168.3Y-63.0
X171.8Y-50.0
X171.8Y-68.0
X175.3Y-45.0
X175.3Y-63.0
X178.8Y-50.0
X178.8Y-68.0
X182.3Y-45.0
X182.3Y-63.0
X185.8Y-50.0
X185.8Y-68.0
T0
M30
